<svg width="82" height="39" fill="none" xmlns="http://www.w3.org/2000/svg"><mask id="a" maskUnits="userSpaceOnUse" x="0" y="0" width="82" height="39" fill="#000"><path fill="#fff" d="M0 0h82v39H0z"/><path d="M21.344 29.99h-5.145V9.474h5.145V29.99zM18.883 6.798c-.775 0-1.461-.283-2.058-.847-.567-.595-.85-1.279-.85-2.052 0-.773.283-1.442.85-2.007.597-.595 1.283-.892 2.058-.892.776 0 1.447.297 2.013.892.597.565.895 1.234.895 2.007 0 .773-.298 1.457-.895 2.052-.566.564-1.238.847-2.013.847zM75.408 29.99h5.145V9.474h-5.145V29.99zM76.034 5.95c.597.565 1.283.848 2.058.848.776 0 1.447-.283 2.013-.847.597-.595.895-1.279.895-2.052 0-.773-.298-1.442-.895-2.007C79.54 1.297 78.868 1 78.092 1c-.775 0-1.461.297-2.058.892-.567.565-.85 1.234-.85 2.007 0 .773.283 1.457.85 2.052zM67.468 29.99h5.145V1.892h-5.145V29.99z"/><path fill-rule="evenodd" clip-rule="evenodd" d="M53.97 9.25c.895 0 1.7.12 2.416.358s1.328.49 1.835.758a9.914 9.914 0 0 1 1.566 1.115l.894-2.007h3.803v19.178c0 2.675-.865 4.831-2.595 6.466-1.7 1.636-4.116 2.453-7.247 2.453-1.91 0-3.46-.341-4.653-1.025-1.163-.684-2.088-1.457-2.774-2.32a10.237 10.237 0 0 1-1.745-3.344h5.145c.209.386.492.728.85 1.025.328.238.746.461 1.253.67.507.208 1.148.312 1.924.312 1.461 0 2.61-.402 3.444-1.205.836-.773 1.253-1.784 1.253-3.032V27.09a7.665 7.665 0 0 1-1.431 1.115 9.05 9.05 0 0 1-1.7.802c-.657.209-1.402.313-2.237.313a9.109 9.109 0 0 1-3.669-.759 9.565 9.565 0 0 1-2.997-2.096c-.836-.892-1.507-1.947-2.014-3.166-.477-1.22-.715-2.557-.715-4.014 0-1.457.238-2.795.715-4.014.507-1.22 1.178-2.275 2.014-3.167a9.563 9.563 0 0 1 2.997-2.096 9.107 9.107 0 0 1 3.669-.758zm-4.25 10.036c0 .713.12 1.382.358 2.007a5.634 5.634 0 0 0 1.074 1.65c.447.446.97.803 1.566 1.07a4.646 4.646 0 0 0 1.924.402 4.54 4.54 0 0 0 1.879-.402 5.225 5.225 0 0 0 1.566-1.07 5.634 5.634 0 0 0 1.073-1.65 5.028 5.028 0 0 0 .403-2.007c0-.714-.134-1.383-.403-2.007a5.06 5.06 0 0 0-1.073-1.606 4.86 4.86 0 0 0-1.566-1.115 4.54 4.54 0 0 0-1.88-.401c-.685 0-1.327.134-1.923.401a4.86 4.86 0 0 0-1.566 1.115 5.06 5.06 0 0 0-1.074 1.606 5.574 5.574 0 0 0-.358 2.007z"/><path d="M37.847 9.875c-1.014-.416-2.132-.624-3.355-.624-.865 0-1.655.119-2.371.357-.686.238-1.283.49-1.79.758-.596.327-1.148.699-1.655 1.115l-.895-2.007H23.98V29.99h5.144V18.617c0-1.338.388-2.409 1.164-3.211.805-.833 1.834-1.25 3.087-1.25 1.252 0 2.266.417 3.042 1.25.805.802 1.208 1.873 1.208 3.21V29.99h5.145V17.948c0-1.338-.21-2.542-.627-3.613-.388-1.07-.954-1.977-1.7-2.72a6.77 6.77 0 0 0-2.595-1.74zM9.277 4.568H4.803v2.899c0 1.635-.82 2.453-2.46 2.453H1v4.237h3.132v8.697c0 1.13.164 2.14.492 3.032a7.607 7.607 0 0 0 1.431 2.32 6.588 6.588 0 0 0 2.193 1.516c.865.327 1.804.49 2.818.49.656 0 1.238-.074 1.745-.222.268-.06.507-.134.716-.223v-4.46c-.12.06-.239.104-.358.133-.12.03-.254.06-.403.09h-.581c-.895 0-1.611-.253-2.148-.759-.507-.535-.76-1.248-.76-2.14v-8.474h4.473V9.474H9.277V4.568z"/></mask><path d="M21.344 29.99h-5.145V9.474h5.145V29.99zM18.883 6.798c-.775 0-1.461-.283-2.058-.847-.567-.595-.85-1.279-.85-2.052 0-.773.283-1.442.85-2.007.597-.595 1.283-.892 2.058-.892.776 0 1.447.297 2.013.892.597.565.895 1.234.895 2.007 0 .773-.298 1.457-.895 2.052-.566.564-1.238.847-2.013.847zM75.408 29.99h5.145V9.474h-5.145V29.99zM76.034 5.95c.597.565 1.283.848 2.058.848.776 0 1.447-.283 2.013-.847.597-.595.895-1.279.895-2.052 0-.773-.298-1.442-.895-2.007C79.54 1.297 78.868 1 78.092 1c-.775 0-1.461.297-2.058.892-.567.565-.85 1.234-.85 2.007 0 .773.283 1.457.85 2.052zM67.468 29.99h5.145V1.892h-5.145V29.99z" fill="#000"/><path fill-rule="evenodd" clip-rule="evenodd" d="M53.97 9.25c.895 0 1.7.12 2.416.358s1.328.49 1.835.758a9.914 9.914 0 0 1 1.566 1.115l.894-2.007h3.803v19.178c0 2.675-.865 4.831-2.595 6.466-1.7 1.636-4.116 2.453-7.247 2.453-1.91 0-3.46-.341-4.653-1.025-1.163-.684-2.088-1.457-2.774-2.32a10.237 10.237 0 0 1-1.745-3.344h5.145c.209.386.492.728.85 1.025.328.238.746.461 1.253.67.507.208 1.148.312 1.924.312 1.461 0 2.61-.402 3.444-1.205.836-.773 1.253-1.784 1.253-3.032V27.09a7.665 7.665 0 0 1-1.431 1.115 9.05 9.05 0 0 1-1.7.802c-.657.209-1.402.313-2.237.313a9.109 9.109 0 0 1-3.669-.759 9.565 9.565 0 0 1-2.997-2.096c-.836-.892-1.507-1.947-2.014-3.166-.477-1.22-.715-2.557-.715-4.014 0-1.457.238-2.795.715-4.014.507-1.22 1.178-2.275 2.014-3.167a9.563 9.563 0 0 1 2.997-2.096 9.107 9.107 0 0 1 3.669-.758zm-4.25 10.036c0 .713.12 1.382.358 2.007a5.634 5.634 0 0 0 1.074 1.65c.447.446.97.803 1.566 1.07a4.646 4.646 0 0 0 1.924.402 4.54 4.54 0 0 0 1.879-.402 5.225 5.225 0 0 0 1.566-1.07 5.634 5.634 0 0 0 1.073-1.65 5.028 5.028 0 0 0 .403-2.007c0-.714-.134-1.383-.403-2.007a5.06 5.06 0 0 0-1.073-1.606 4.86 4.86 0 0 0-1.566-1.115 4.54 4.54 0 0 0-1.88-.401c-.685 0-1.327.134-1.923.401a4.86 4.86 0 0 0-1.566 1.115 5.06 5.06 0 0 0-1.074 1.606 5.574 5.574 0 0 0-.358 2.007z" fill="#000"/><path d="M37.847 9.875c-1.014-.416-2.132-.624-3.355-.624-.865 0-1.655.119-2.371.357-.686.238-1.283.49-1.79.758-.596.327-1.148.699-1.655 1.115l-.895-2.007H23.98V29.99h5.144V18.617c0-1.338.388-2.409 1.164-3.211.805-.833 1.834-1.25 3.087-1.25 1.252 0 2.266.417 3.042 1.25.805.802 1.208 1.873 1.208 3.21V29.99h5.145V17.948c0-1.338-.21-2.542-.627-3.613-.388-1.07-.954-1.977-1.7-2.72a6.77 6.77 0 0 0-2.595-1.74zM9.277 4.568H4.803v2.899c0 1.635-.82 2.453-2.46 2.453H1v4.237h3.132v8.697c0 1.13.164 2.14.492 3.032a7.607 7.607 0 0 0 1.431 2.32 6.588 6.588 0 0 0 2.193 1.516c.865.327 1.804.49 2.818.49.656 0 1.238-.074 1.745-.222.268-.06.507-.134.716-.223v-4.46c-.12.06-.239.104-.358.133-.12.03-.254.06-.403.09h-.581c-.895 0-1.611-.253-2.148-.759-.507-.535-.76-1.248-.76-2.14v-8.474h4.473V9.474H9.277V4.568z" fill="#000"/><path d="M21.344 29.99h-5.145V9.474h5.145V29.99zM18.883 6.798c-.775 0-1.461-.283-2.058-.847-.567-.595-.85-1.279-.85-2.052 0-.773.283-1.442.85-2.007.597-.595 1.283-.892 2.058-.892.776 0 1.447.297 2.013.892.597.565.895 1.234.895 2.007 0 .773-.298 1.457-.895 2.052-.566.564-1.238.847-2.013.847zM75.408 29.99h5.145V9.474h-5.145V29.99zM76.034 5.95c.597.565 1.283.848 2.058.848.776 0 1.447-.283 2.013-.847.597-.595.895-1.279.895-2.052 0-.773-.298-1.442-.895-2.007C79.54 1.297 78.868 1 78.092 1c-.775 0-1.461.297-2.058.892-.567.565-.85 1.234-.85 2.007 0 .773.283 1.457.85 2.052zM67.468 29.99h5.145V1.892h-5.145V29.99z" stroke="#000" mask="url(#a)"/><path clip-rule="evenodd" d="M53.97 9.25c.895 0 1.7.12 2.416.358s1.328.49 1.835.758a9.914 9.914 0 0 1 1.566 1.115l.894-2.007h3.803v19.178c0 2.675-.865 4.831-2.595 6.466-1.7 1.636-4.116 2.453-7.247 2.453-1.91 0-3.46-.341-4.653-1.025-1.163-.684-2.088-1.457-2.774-2.32a10.237 10.237 0 0 1-1.745-3.344h5.145c.209.386.492.728.85 1.025.328.238.746.461 1.253.67.507.208 1.148.312 1.924.312 1.461 0 2.61-.402 3.444-1.205.836-.773 1.253-1.784 1.253-3.032V27.09a7.665 7.665 0 0 1-1.431 1.115 9.05 9.05 0 0 1-1.7.802c-.657.209-1.402.313-2.237.313a9.109 9.109 0 0 1-3.669-.759 9.565 9.565 0 0 1-2.997-2.096c-.836-.892-1.507-1.947-2.014-3.166-.477-1.22-.715-2.557-.715-4.014 0-1.457.238-2.795.715-4.014.507-1.22 1.178-2.275 2.014-3.167a9.563 9.563 0 0 1 2.997-2.096 9.107 9.107 0 0 1 3.669-.758zm-4.25 10.036c0 .713.12 1.382.358 2.007a5.634 5.634 0 0 0 1.074 1.65c.447.446.97.803 1.566 1.07a4.646 4.646 0 0 0 1.924.402 4.54 4.54 0 0 0 1.879-.402 5.225 5.225 0 0 0 1.566-1.07 5.634 5.634 0 0 0 1.073-1.65 5.028 5.028 0 0 0 .403-2.007c0-.714-.134-1.383-.403-2.007a5.06 5.06 0 0 0-1.073-1.606 4.86 4.86 0 0 0-1.566-1.115 4.54 4.54 0 0 0-1.88-.401c-.685 0-1.327.134-1.923.401a4.86 4.86 0 0 0-1.566 1.115 5.06 5.06 0 0 0-1.074 1.606 5.574 5.574 0 0 0-.358 2.007z" stroke="#000" mask="url(#a)"/><path d="M37.847 9.875c-1.014-.416-2.132-.624-3.355-.624-.865 0-1.655.119-2.371.357-.686.238-1.283.49-1.79.758-.596.327-1.148.699-1.655 1.115l-.895-2.007H23.98V29.99h5.144V18.617c0-1.338.388-2.409 1.164-3.211.805-.833 1.834-1.25 3.087-1.25 1.252 0 2.266.417 3.042 1.25.805.802 1.208 1.873 1.208 3.21V29.99h5.145V17.948c0-1.338-.21-2.542-.627-3.613-.388-1.07-.954-1.977-1.7-2.72a6.77 6.77 0 0 0-2.595-1.74zM9.277 4.568H4.803v2.899c0 1.635-.82 2.453-2.46 2.453H1v4.237h3.132v8.697c0 1.13.164 2.14.492 3.032a7.607 7.607 0 0 0 1.431 2.32 6.588 6.588 0 0 0 2.193 1.516c.865.327 1.804.49 2.818.49.656 0 1.238-.074 1.745-.222.268-.06.507-.134.716-.223v-4.46c-.12.06-.239.104-.358.133-.12.03-.254.06-.403.09h-.581c-.895 0-1.611-.253-2.148-.759-.507-.535-.76-1.248-.76-2.14v-8.474h4.473V9.474H9.277V4.568z" stroke="#000" mask="url(#a)"/></svg>