<svg width="32" height="32" fill="none" xmlns="http://www.w3.org/2000/svg"><path d="M21.493 1.333c.108 3.9-2.681 6.606-5.467 6.437-.46-3.113 2.785-6.436 5.467-6.436zM4 17.191c0 4.539 3.611 13.45 7.977 13.476h.028c1.086 0 2.043-.358 2.888-.673l.008-.003c.62-.232 1.206-.451 1.669-.451.914 0 1.467.235 2.108.507.634.27 1.352.575 2.368.575 4.154 0 7.014-7.695 7.014-8.053 0-.548-.417-.799-.821-1.042l-.002-.001-.002-.001c-.916-.552-2.822-1.698-2.822-4.678 0-2.517 1.684-3.787 2.607-4.484l.646-.488-.449-.674c-1.916-2.879-5.105-3.11-6.156-3.11h-.009c-1.408 0-2.617.481-3.589.868l-.02.008c-.45.178-.955.378-1.17.378-.367 0-1.025-.242-1.66-.476-.91-.335-1.942-.715-2.908-.715C9.562 8.154 4 9.777 4 17.191z" fill="#F6F6F9"/></svg>