<svg width="24" height="24" fill="none" xmlns="http://www.w3.org/2000/svg"><path d="M7.759 2h8.482c.805 0 1.47 0 2.01.044.563.046 1.08.145 1.565.392a4 4 0 0 1 1.748 1.748c.247.485.346 1.002.392 1.564C22 6.29 22 6.954 22 7.758V14a1 1 0 1 1-2 0V7.8c0-.857 0-1.439-.038-1.889-.035-.438-.1-.663-.18-.819a2 2 0 0 0-.874-.874c-.156-.08-.38-.145-.819-.18C17.639 4 17.057 4 16.2 4H7.8c-.857 0-1.439 0-1.889.038-.438.035-.663.1-.819.18a2 2 0 0 0-.874.874c-.08.156-.145.38-.18.819C4 6.361 4 6.943 4 7.8v8.4c0 .857 0 1.439.038 1.889.035.438.1.663.18.819a2 2 0 0 0 .874.874c.156.08.38.145.819.18C6.361 20 6.943 20 7.8 20H14a1 1 0 1 1 0 2H7.759c-.805 0-1.47 0-2.01-.044-.563-.046-1.08-.145-1.565-.392a4 4 0 0 1-1.748-1.748c-.247-.485-.346-1.002-.392-1.564C2 17.71 2 17.046 2 16.242V7.758c0-.805 0-1.47.044-2.01.046-.563.145-1.08.392-1.565a4 4 0 0 1 1.748-1.748c.485-.247 1.002-.346 1.564-.392C6.29 2 6.954 2 7.758 2z" fill="#000"/><path d="m15.138 13.431-4.822 2.411c-.767.384-1.15.575-1.462.53a1 1 0 0 1-.673-.417C8 15.697 8 15.268 8 14.411V9.59c0-.857 0-1.286.18-1.544a1 1 0 0 1 .674-.416c.311-.046.695.145 1.462.529l4.822 2.41c.921.462 1.382.692 1.53 1.003a1 1 0 0 1 0 .857c-.148.312-.609.542-1.53 1.003zM21 17a1 1 0 1 0-2 0v2h-2a1 1 0 1 0 0 2h2v2a1 1 0 1 0 2 0v-2h2a1 1 0 1 0 0-2h-2v-2z" fill="#000"/></svg>