<svg width="24" height="24" fill="none" xmlns="http://www.w3.org/2000/svg"><path d="M7.495 6.292a1.1 1.1 0 0 1 1.009 0c.312.16.448.43.478.49l.002.005c.037.073.07.157.088.201L9.077 7l1.692 4.23L15 12.923l.012.005a2.596 2.596 0 0 1 .205.09c.059.03.33.165.491.478a1.1 1.1 0 0 1 0 1.008 1.116 1.116 0 0 1-.496.48c-.073.037-.156.07-.2.088l-.012.005-4.231 1.693L9.077 21l-.005.012a2.557 2.557 0 0 1-.088.2l-.002.006c-.03.06-.166.33-.478.49a1.101 1.101 0 0 1-1.009 0 1.114 1.114 0 0 1-.477-.49l-.003-.005c-.037-.073-.07-.157-.087-.201L6.923 21l-1.692-4.23L1 15.077l-.013-.005a2.581 2.581 0 0 1-.2-.088c-.001 0-.004 0-.006-.002a1.116 1.116 0 0 1-.49-.478 1.1 1.1 0 0 1 0-1.008c.16-.313.431-.449.49-.478l.005-.002c.073-.037.157-.07.201-.088L1 12.923l4.23-1.693L6.924 7l.005-.012c.017-.044.05-.128.087-.2l.003-.006c.03-.06.165-.329.477-.49zM20 13a1 1 0 0 1 1 1v2h2a1 1 0 0 1 0 2h-2v2a1 1 0 0 1-2 0v-2h-2a1 1 0 1 1 0-2h2v-2a1 1 0 0 1 1-1zm-13.046-.692-.03.07a1.108 1.108 0 0 1-.546.546c-.03.014-.062.026-.07.03L3.692 14l2.616 1.046.07.03a1.087 1.087 0 0 1 .546.545l.03.07v.001L8 18.308l1.046-2.616a1.107 1.107 0 0 1 .575-.616l.071-.03L12.307 14l-2.615-1.046-.07-.03a1.09 1.09 0 0 1-.547-.545c-.014-.031-.026-.063-.029-.07v-.001L8 9.692l-1.046 2.616zM17 2a1 1 0 0 1 1 1v2h2a1 1 0 0 1 0 2h-2v2a1 1 0 0 1-2 0V7h-2a1 1 0 1 1 0-2h2V3a1 1 0 0 1 1-1z" fill="#000"/></svg>