<svg width="24" height="24" fill="none" xmlns="http://www.w3.org/2000/svg"><path fill-rule="evenodd" clip-rule="evenodd" d="M4 10.504C4 6.804 6.382 4 9.5 4c2.053 0 3.787 1.215 4.732 3.102A4.166 4.166 0 0 1 17.046 6c2.57 0 4.5 2.285 4.5 5.234 0 1.482-.376 3.523-1.522 5.133l.56 1.4a1 1 0 0 0 .612.578l2.12.706a1 1 0 0 1-.632 1.898l-2.12-.707a3 3 0 0 1-1.837-1.732l-.27-.674c-.12.05-.249.093-.364.118-.214.047-.41.046-.56.046H16.557c-.15 0-.345 0-.558-.045a2.15 2.15 0 0 1-.53-.196c-.19-.103-.314-.21-.412-.294l-.016-.015a6.375 6.375 0 0 1-1.292-1.532c-.11.215-.229.427-.356.634.02.038.036.078.05.12l.628 1.804a1 1 0 0 0 .475.555l3.923 2.086a1 1 0 1 1-.94 1.766l-3.922-2.086a3 3 0 0 1-1.425-1.664l-.276-.793a7.422 7.422 0 0 1-.134.115l-.019.016c-.1.085-.23.194-.418.294a2.122 2.122 0 0 1-.523.191c-.21.045-.405.044-.557.044H8.744c-.152 0-.346 0-.554-.043a2.114 2.114 0 0 1-.52-.188 2.305 2.305 0 0 1-.42-.292l-.02-.017a7.463 7.463 0 0 1-.138-.118l-.274.79a3 3 0 0 1-1.425 1.665L1.47 22.883a1 1 0 1 1-.94-1.766l3.923-2.086a1 1 0 0 0 .475-.555l.628-1.804c.01-.032.023-.063.037-.093C4.408 14.695 4 12.424 4 10.504zM9.5 6C7.772 6 6 7.6 6 10.504c0 2.345.694 4.91 2.509 6.418a7.1 7.1 0 0 0 .069.057l.01.008.014.011.063.002H10.335l.062-.002.01-.008.012-.01a8.15 8.15 0 0 0 .067-.056c1.816-1.528 2.514-4.3 2.514-6.42C13 7.599 11.228 6 9.5 6zm5.24 7.036c.254 1.141.767 2.178 1.605 2.897l.061.052.016.013.059.002h1.129l.056-.002h.002l.012-.01.06-.052c1.29-1.125 1.806-3.135 1.806-4.702 0-2.132-1.301-3.234-2.5-3.234-.827 0-1.641.49-2.113 1.445.044.343.067.697.067 1.059 0 .76-.077 1.63-.26 2.532z" fill="#000"/></svg>