<svg width="32" height="32" fill="none" xmlns="http://www.w3.org/2000/svg"><path fill-rule="evenodd" clip-rule="evenodd" d="M16.663 1.732a2.667 2.667 0 0 0-1.327 0c-.505.13-.936.447-1.28.699l-.095.07-10.802 7.855c-.366.267-.706.514-.956.73-.194.167-.664.574-.785 1.207a2 2 0 0 0 .596 1.832c.47.44 1.089.493 1.345.514.329.028.75.028 1.202.028h22.877c.453 0 .874 0 1.203-.027.256-.022.874-.074 1.344-.515a2 2 0 0 0 .596-1.832c-.12-.633-.59-1.04-.785-1.208a15.98 15.98 0 0 0-.956-.729L18.039 2.501l-.096-.07c-.344-.252-.775-.569-1.28-.699zM15.53 4.657c.24-.174.366-.265.462-.325L16 4.327l.009.005c.095.06.221.15.461.325L26.566 12H5.433L15.53 4.657z" fill="#000"/><path d="M21.333 18a1.333 1.333 0 1 0-2.667 0v8.667h-5.333V18a1.333 1.333 0 1 0-2.667 0v8.667h-4V18A1.333 1.333 0 1 0 4 18v8.667H2.666a1.333 1.333 0 1 0 0 2.666h26.667a1.333 1.333 0 1 0 0-2.666H28V18a1.333 1.333 0 0 0-2.667 0v8.667h-4V18z" fill="#000"/></svg>