<svg width="24" height="24" fill="none" xmlns="http://www.w3.org/2000/svg"><path d="M10.5 2a1 1 0 1 0-2 0v1h-6a1 1 0 0 0 0 2h9.854c-.02.103-.041.213-.066.329-.19.884-.542 2.1-1.186 3.42a14.125 14.125 0 0 1-2.238 3.31 20.055 20.055 0 0 1-2.46-3.985 1 1 0 0 0-1.809.852A21.987 21.987 0 0 0 7.41 13.44c-1.248 1.023-2.802 1.937-4.74 2.615a1 1 0 0 0 .661 1.888c2.212-.774 3.989-1.829 5.416-3.014a19.01 19.01 0 0 0 2.332 1.998l-1.98 4.14a1 1 0 1 0 1.804.863l1.871-3.912c.86.487 1.623.823 2.215 1.049.387.147.702.247.926.312l.377.098a1 1 0 0 0 .422-1.955h-.002l-.005-.002a10.027 10.027 0 0 1-1.006-.323 14.326 14.326 0 0 1-2.061-.988l2.341-4.897L20.584 21.9a1 1 0 1 0 1.834-.798L17.62 10.07a1.778 1.778 0 0 0-3.234-.058l-2.43 5.08a17.064 17.064 0 0 1-1.754-1.534 16.13 16.13 0 0 0 2.696-3.93 17.057 17.057 0 0 0 1.345-3.878c.06-.279.107-.53.142-.749H16.5a1 1 0 1 0 0-2h-6V2z" fill="#000"/></svg>