<svg width="32" height="32" fill="none" xmlns="http://www.w3.org/2000/svg"><path fill-rule="evenodd" clip-rule="evenodd" d="M12.737 6c-1.73-.574-2.234-.61-2.97.124-.523.52-2.193 2.204-2.712 1.682-.52-.522-.522-3.264 0-3.783 1.675-1.668 5.938-3.467 8.279-2.69 1.679.557 2.564 3.427 3.746 5.107 1.182-1.68 1.933-3.826 3.613-4.383 2.34-.777 6.366.09 8.042 1.757.522.52 1.354 3.47.834 3.992-.52.522-2.654-1.162-3.176-1.681-.737-.734-1.329-.7-3.06-.125-.79.262-2.508.326-3.195.967 3.294-.368 6.728.596 7.882 2.894.33.658.658 5.21 0 5.54-.658.33-5.001-2.076-5.332-2.734-.771-1.536-.892-3.895-4.041-2.575.979 4.03.932 7.887.348 11.088-.385 2.106-1.016 3.998-1.79 5.487h4.7a1.333 1.333 0 0 1 0 2.666H9.43a1.333 1.333 0 0 1 0-2.666h4.917c-.572-1.029-1.142-2.148-1.61-3.302-.546-1.35-.981-2.82-1.09-4.304-.303.175-.64.386-.986.635-1.236.889-1.28 1.973-1.766 3.67C8.69 24.072 6.708 26.202 6 26c-.708-.203-1.072-2.468-.869-3.176.686-2.39 2.33-4.067 3.763-5.14-1.559-.017-3.013.367-4.095 1.176-.59.442-1.69 1.426-2.132.836-.441-.59 1.543-3.921 2.133-4.363 2.882-2.157 5.384-.69 8.64.576.65.253 1.011.917.91 1.575-.22 1.444.144 3.114.859 4.881.443 1.095.997 2.171 1.57 3.188.625-1.17 1.221-2.82 1.592-4.852.544-2.98.57-6.62-.424-10.411-1.51-.957-3.056.14-3.863 1.745-.33.658-4.092 1.195-4.75.864-.658-.33-.33-2.908 0-3.566 1.154-2.298 3.393-2.734 6.688-2.366-.688-.64-2.494-.705-3.285-.967z" fill="#000"/></svg>