<svg width="32" height="32" fill="none" xmlns="http://www.w3.org/2000/svg"><path fill-rule="evenodd" clip-rule="evenodd" d="M13.445 6.565a15.988 15.988 0 0 0-11.028-1.21 1.431 1.431 0 0 0-1.084 1.388v18.466c0 .93.874 1.614 1.777 1.388a13.192 13.192 0 0 1 9.1.999l3.134 1.567c.413.206.899.206 1.312 0l3.134-1.567a13.192 13.192 0 0 1 9.1-1 1.43 1.43 0 0 0 1.776-1.387V6.743c0-.657-.447-1.229-1.084-1.388a15.988 15.988 0 0 0-11.027 1.21L16 7.843l-2.555-1.278zM4 23.705V7.743c2.8-.49 5.694-.072 8.252 1.207l2.414 1.207v15.686l-1.264-.632A15.859 15.859 0 0 0 4 23.705zm13.333 2.138 1.264-.632A15.86 15.86 0 0 1 28 23.705V7.743c-2.801-.49-5.695-.072-8.253 1.207l-2.414 1.207v15.686z" fill="#000"/></svg>