<svg width="24" height="24" fill="none" xmlns="http://www.w3.org/2000/svg"><path d="M8 7a2 2 0 1 0 0 4h.01a2 2 0 1 0 0-4H8z" fill="#000"/><path fill-rule="evenodd" clip-rule="evenodd" d="M7.031 2h9.937c.847 0 1.545 0 2.11.047.587.05 1.125.154 1.626.42a4 4 0 0 1 1.756 1.857c.238.514.313 1.057.33 1.646.015.567-.024 1.263-.07 2.109l-.472 8.483c-.042.763-.078 1.395-.147 1.91-.073.535-.193 1.024-.448 1.481a4 4 0 0 1-1.735 1.64c-.47.23-.965.323-1.504.366-.517.041-1.15.041-1.915.041H7.501c-.331 0-.637 0-.92-.003a1.01 1.01 0 0 1-.193-.003c-.294-.006-.56-.016-.802-.035-.539-.043-1.034-.135-1.505-.365a4 4 0 0 1-1.734-1.641c-.256-.457-.375-.946-.448-1.482-.07-.514-.105-1.146-.147-1.91L1.28 8.08c-.047-.845-.086-1.542-.07-2.11.016-.588.091-1.131.328-1.645a4 4 0 0 1 1.757-1.857c.5-.266 1.039-.37 1.625-.42C5.487 2 6.184 2 7.031 2zm9.428 18H8.736l5.881-6.573a8.45 8.45 0 0 1 .413-.444l.01-.01.012.009c.095.08.217.2.437.421l4.649 4.649a7.492 7.492 0 0 1-.02.15c-.055.414-.127.626-.21.774a2 2 0 0 1-.868.82c-.153.076-.369.136-.785.17-.428.033-.98.034-1.796.034zM20.72 8.01l-.41 7.386-3.43-3.43c-.188-.188-.37-.37-.536-.511a2.026 2.026 0 0 0-.718-.412 2 2 0 0 0-1.277.035c-.298.11-.52.288-.693.452-.158.15-.33.341-.507.539l-7.082 7.915a8.488 8.488 0 0 1-.322-.019c-.417-.033-.632-.093-.785-.168a2 2 0 0 1-.868-.82c-.083-.15-.155-.361-.211-.775-.058-.426-.09-.978-.135-1.791l-.466-8.4c-.05-.899-.083-1.512-.07-1.986.013-.463.07-.7.145-.863a2 2 0 0 1 .879-.929c.16-.084.392-.154.854-.193C5.56 4 6.174 4 7.074 4h9.852c.9 0 1.513 0 1.986.04.462.039.695.109.854.193a2 2 0 0 1 .879.929c.075.164.132.4.145.863.013.474-.02 1.087-.07 1.986z" fill="#000"/></svg>