<svg width="32" height="32" fill="none" xmlns="http://www.w3.org/2000/svg"><path fill-rule="evenodd" clip-rule="evenodd" d="M7.372 11.49c.414-5.175 4.1-8.823 8.628-8.823 4.528 0 8.214 3.648 8.628 8.823.42.225.705.667.705 1.177V16c0 .736-.597 1.333-1.333 1.333-.424 1.536-1.074 3.088-2.012 4.492l.432 3.021c.072.5.42.917.898 1.077l6.437 2.145a1.333 1.333 0 1 1-.843 2.53l-6.437-2.145a4 4 0 0 1-2.695-3.23l-.114-.803c-.108.089-.217.176-.329.262l-.028.021c-.135.104-.308.238-.547.355a2.81 2.81 0 0 1-.66.224 3.467 3.467 0 0 1-.7.051H14.598c-.192 0-.438.001-.698-.05a2.802 2.802 0 0 1-.655-.22 3.172 3.172 0 0 1-.549-.354l-.029-.022a11.775 11.775 0 0 1-.333-.262l-.114.799a4 4 0 0 1-2.695 3.229l-6.437 2.145a1.333 1.333 0 1 1-.843-2.53l6.437-2.145c.479-.16.826-.576.898-1.076l.423-2.964c-.967-1.408-1.626-2.97-2.047-4.55A1.333 1.333 0 0 1 6.666 16v-3.333c0-.51.286-.952.706-1.177zM16 5.333c-3.089 0-6 2.66-6 7.135 0 3.659 1.156 7.724 4.28 10.095a11.224 11.224 0 0 0 .135.102l.083.001H17.502l.081-.001.037-.027.094-.072C20.837 20.17 22 15.777 22 12.468c0-4.474-2.91-7.135-6-7.135z" fill="#000"/></svg>