<svg width="28" height="28" viewBox="0 0 28 28" fill="none" xmlns="http://www.w3.org/2000/svg">
<path d="M14.0003 19.8333C14.6447 19.8333 15.167 19.311 15.167 18.6667V14C15.167 13.3557 14.6447 12.8333 14.0003 12.8333C13.356 12.8333 12.8337 13.3557 12.8337 14V18.6667C12.8337 19.311 13.356 19.8333 14.0003 19.8333Z" fill="#F6F6F9"/>
<path d="M14.0003 7.58333C13.0338 7.58333 12.2503 8.36683 12.2503 9.33333C12.2503 10.2998 13.0338 11.0833 14.0003 11.0833H14.012C14.9785 11.0833 15.762 10.2998 15.762 9.33333C15.762 8.36683 14.9785 7.58333 14.012 7.58333H14.0003Z" fill="#F6F6F9"/>
<path fill-rule="evenodd" clip-rule="evenodd" d="M1.16699 14C1.16699 6.91234 6.91267 1.16666 14.0003 1.16666C21.088 1.16666 26.8337 6.91234 26.8337 14C26.8337 21.0877 21.088 26.8333 14.0003 26.8333C6.91267 26.8333 1.16699 21.0877 1.16699 14ZM14.0003 3.5C8.20134 3.5 3.50033 8.20101 3.50033 14C3.50033 19.799 8.20134 24.5 14.0003 24.5C19.7993 24.5 24.5003 19.799 24.5003 14C24.5003 8.20101 19.7993 3.5 14.0003 3.5Z" fill="#F6F6F9"/>
</svg>
