<svg width="28" height="28" fill="none" xmlns="http://www.w3.org/2000/svg"><path d="M14 19.833c.645 0 1.167-.522 1.167-1.166V14a1.167 1.167 0 0 0-2.333 0v4.667c0 .644.522 1.166 1.166 1.166zM14 7.583a1.75 1.75 0 1 0 0 3.5h.012a1.75 1.75 0 1 0 0-3.5H14z" fill="#F6F6F9"/><path fill-rule="evenodd" clip-rule="evenodd" d="M1.167 14C1.167 6.912 6.913 1.167 14 1.167c7.088 0 12.834 5.745 12.834 12.833S21.088 26.833 14 26.833C6.913 26.833 1.167 21.088 1.167 14zM14 3.5C8.201 3.5 3.5 8.201 3.5 14S8.201 24.5 14 24.5c5.8 0 10.5-4.701 10.5-10.5S19.8 3.5 14 3.5z" fill="#F6F6F9"/></svg>