<svg width="60" height="28" fill="none" xmlns="http://www.w3.org/2000/svg"><path d="M15.258 22.028h-3.859V6.64h3.859v15.387zM13.412 4.634c-.581 0-1.096-.212-1.543-.635-.425-.446-.638-.96-.638-1.54 0-.579.213-1.08.638-1.504.447-.446.962-.67 1.543-.67.582 0 1.085.224 1.51.67.448.423.671.925.671 1.505 0 .58-.223 1.093-.67 1.539a2.067 2.067 0 0 1-1.51.635zM55.806 22.028h3.858V6.64h-3.858v15.387zM56.276 3.999c.447.423.961.635 1.543.635s1.085-.212 1.51-.635c.447-.446.671-.96.671-1.54 0-.579-.224-1.08-.671-1.504-.425-.446-.928-.67-1.51-.67s-1.096.224-1.544.67c-.425.423-.637.925-.637 1.505 0 .58.212 1.093.638 1.539zM49.851 22.028h3.859V.955H49.85v21.073z" fill="#fff"/><path fill-rule="evenodd" clip-rule="evenodd" d="M39.728 6.474c.671 0 1.275.09 1.812.267.537.179.995.368 1.376.57.425.244.816.523 1.174.835l.671-1.505h2.852v14.383c0 2.007-.649 3.624-1.946 4.85-1.275 1.227-3.087 1.84-5.436 1.84-1.431 0-2.595-.256-3.49-.769-.872-.513-1.565-1.093-2.08-1.74a7.675 7.675 0 0 1-1.308-2.508h3.858c.157.29.37.546.638.77.246.178.56.345.94.501.38.156.86.234 1.442.234 1.096 0 1.957-.3 2.584-.903.626-.58.94-1.338.94-2.275v-1.17a5.75 5.75 0 0 1-1.074.836 6.787 6.787 0 0 1-1.275.602c-.492.156-1.052.234-1.678.234a6.83 6.83 0 0 1-2.752-.569c-.85-.379-1.599-.903-2.248-1.572a7.845 7.845 0 0 1-1.51-2.375c-.357-.914-.536-1.917-.536-3.01 0-1.093.179-2.096.536-3.01a7.844 7.844 0 0 1 1.51-2.375 7.174 7.174 0 0 1 2.248-1.572 6.831 6.831 0 0 1 2.752-.57zM36.54 14c0 .535.09 1.037.269 1.505.201.468.47.881.805 1.238.336.334.727.602 1.174.803.448.2.929.3 1.443.3.492 0 .962-.1 1.41-.3.447-.201.838-.469 1.174-.803.335-.357.604-.77.805-1.238A3.77 3.77 0 0 0 43.922 14c0-.535-.1-1.037-.302-1.505a3.797 3.797 0 0 0-.805-1.204 3.643 3.643 0 0 0-1.174-.837 3.405 3.405 0 0 0-1.41-.3c-.514 0-.995.1-1.443.3-.447.201-.838.48-1.174.837a3.794 3.794 0 0 0-.805 1.204A4.18 4.18 0 0 0 36.54 14z" fill="#fff"/><path d="M27.636 6.942c-.761-.312-1.6-.468-2.517-.468-.649 0-1.241.09-1.778.267a9.698 9.698 0 0 0-1.343.57 8.05 8.05 0 0 0-1.241.835l-.671-1.505h-2.852v15.387h3.859v-8.53c0-1.003.29-1.806.872-2.408.604-.624 1.376-.937 2.315-.937.94 0 1.7.313 2.282.937.604.602.906 1.405.906 2.408v8.53h3.858v-9.031c0-1.004-.156-1.907-.47-2.71a5.46 5.46 0 0 0-1.274-2.04 5.075 5.075 0 0 0-1.947-1.305zM6.207 2.962H2.852v2.174c0 1.226-.615 1.84-1.845 1.84H0v3.177h2.349v6.523c0 .847.123 1.606.369 2.275a5.706 5.706 0 0 0 1.074 1.739c.47.49 1.017.87 1.644 1.137a5.929 5.929 0 0 0 2.114.368c.492 0 .928-.056 1.308-.167.201-.045.38-.1.537-.167v-3.345c-.09.044-.179.078-.268.1-.09.022-.19.045-.302.067h-.437c-.67 0-1.208-.19-1.61-.569-.38-.401-.57-.936-.57-1.605v-6.356h3.355V6.641H6.207v-3.68z" fill="#fff"/></svg>