<svg xmlns="http://www.w3.org/2000/svg" version="1.1" xmlns:xlink="http://www.w3.org/1999/xlink" width="82" height="82"><svg width="82" height="82" viewBox="0 0 82 82" fill="none" xmlns="http://www.w3.org/2000/svg">
  <path fill-rule="evenodd" clip-rule="evenodd" d="M41 42.4193C35.7087 42.4193 31.4193 46.7087 31.4193 52H25.0322C25.0322 43.1812 32.1812 36.0322 41 36.0322C49.8187 36.0322 56.9677 43.1812 56.9677 52H50.5806C50.5806 46.7087 46.2912 42.4193 41 42.4193Z" fill="black"></path>
  <path fill-rule="evenodd" clip-rule="evenodd" d="M41.0005 33.9037C31.0059 33.9037 22.9037 42.0059 22.9037 52.0005H16.5166C16.5166 38.4784 27.4784 27.5166 41.0005 27.5166C54.5225 27.5166 65.4843 38.4784 65.4843 52.0005H59.0972C59.0972 42.0059 50.995 33.9037 41.0005 33.9037Z" fill="black"></path>
  <path fill-rule="evenodd" clip-rule="evenodd" d="M41 25.3871C26.3021 25.3871 14.3871 37.3021 14.3871 52H8C8 33.7746 22.7746 19 41 19C59.2254 19 74 33.7746 74 52H67.6129C67.6129 37.3021 55.6979 25.3871 41 25.3871Z" fill="black"></path>
  <path d="M30.0887 48.8074C34.486 48.8074 38.4133 50.8196 41 53.9734C43.5867 50.8196 47.514 48.8074 51.9113 48.8074H74V55.1945H51.9113C47.6489 55.1945 44.1936 58.6498 44.1936 62.9122H37.8065C37.8065 58.6498 34.3511 55.1945 30.0887 55.1945H8V48.8074H30.0887Z" fill="black"></path>
</svg><style>@media (prefers-color-scheme: light) { :root { filter: none; } }
@media (prefers-color-scheme: dark) { :root { filter: invert(100%); } }
</style></svg>